<svg width="139" height="76" xmlns="http://www.w3.org/2000/svg" xmlns:xlink="http://www.w3.org/1999/xlink" overflow="hidden"><defs><clipPath id="clip0"><rect x="196" y="177" width="139" height="76"/></clipPath><clipPath id="clip1"><rect x="197" y="178" width="137" height="74"/></clipPath><clipPath id="clip2"><rect x="197" y="177" width="137" height="75"/></clipPath><clipPath id="clip3"><rect x="197" y="144" width="137" height="138"/></clipPath></defs><g clip-path="url(#clip0)" transform="translate(-196 -177)"><g clip-path="url(#clip1)"><g clip-path="url(#clip2)"><g clip-path="url(#clip3)"><path d="M101.002 40.6602C87.2206 40.6602 77.1446 50.4511 68.4083 60.5271 59.672 50.4511 49.596 40.6602 35.8146 40.6602 20.4897 40.6602 8.06648 53.0834 8.06648 68.4083 8.06648 83.7332 20.4897 96.1564 35.8146 96.1564 49.5533 96.1564 59.2872 86.6363 68.4083 76.09 77.4439 86.565 87.2206 96.1564 101.002 96.1564 116.327 96.1564 128.75 83.7332 128.75 68.4083 128.75 53.0834 116.327 40.6602 101.002 40.6602ZM59.8573 68.6363C50.9499 78.8406 44.1804 84.755 35.8146 84.755 26.7866 84.755 19.4679 77.4364 19.4679 68.4083 19.4679 59.3803 26.7866 52.0616 35.8146 52.0616 44.2516 52.0616 51.4915 58.4321 59.8003 67.995L60.0568 68.3085ZM101.002 84.755C92.622 84.755 85.6244 78.584 77.0449 68.6363L76.7598 68.3085 77.0163 67.995C85.3109 58.4321 92.6362 52.0616 101.002 52.0616 110.03 52.0616 117.349 59.3803 117.349 68.4083 117.349 77.4364 110.03 84.755 101.002 84.755Z" fill="#F3A135" transform="matrix(1.00134 0 0 1 197 144.688)"/></g></g></g></g></svg>