<svg viewBox="0 0 96 96" xmlns="http://www.w3.org/2000/svg" xmlns:xlink="http://www.w3.org/1999/xlink" id="Icons_ConstructionBarricade" overflow="hidden"><g id="Icons"><path d="M85 36C86.6569 36 88 34.6569 88 33L88 23C88 21.3431 86.6569 20 85 20L78 20 78 15C78 12.7909 76.2091 11 74 11 71.7909 11 70 12.7909 70 15L70 20 26 20 26 15C26 12.7909 24.2091 11 22 11 19.7909 11 18 12.7909 18 15L18 20 11 20C9.34315 20 8 21.3431 8 23L8 33C8 34.6569 9.34315 36 11 36L18 36 18 46 11 46C9.34315 46 8 47.3431 8 49L8 59C8 60.6569 9.34315 62 11 62L18 62 18 79.141C16.2371 79.5929 15.0032 81.1801 15 83L15 85 29 85 29 83C28.9968 81.1801 27.7629 79.5929 26 79.141L26 62 70 62 70 79.141C68.2371 79.5929 67.0032 81.1801 67 83L67 85 81 85 81 83C80.9968 81.1801 79.7629 79.5929 78 79.141L78 62 85 62C86.6569 62 88 60.6569 88 59L88 49C88 47.3431 86.6569 46 85 46L78 46 78 36ZM77.864 32 69.864 24 78.348 24 84 29.651 84 32ZM57.964 32 49.964 24 58.448 24 66.448 32ZM37.608 32 29.608 24 38.093 24 46.093 32ZM18.242 24 26.242 32 17.758 32 12 26.242 12 24ZM58.442 50 66.442 58 57.96 58 49.96 50ZM38.093 50 46.093 58 37.608 58 29.608 50ZM18.242 50 26.242 58 17.758 58 12 52.242 12 50ZM77.864 58 69.864 50 78.348 50 84 55.651 84 58ZM70 46 26 46 26 36 70 36Z" fill="#ED7D31"/></g></svg>