<svg width="97" height="97" xmlns="http://www.w3.org/2000/svg" xmlns:xlink="http://www.w3.org/1999/xlink" overflow="hidden"><defs><clipPath id="clip0"><rect x="33" y="164" width="97" height="97"/></clipPath><clipPath id="clip1"><rect x="34" y="165" width="96" height="96"/></clipPath><clipPath id="clip2"><rect x="34" y="165" width="96" height="96"/></clipPath><clipPath id="clip3"><rect x="34" y="165" width="96" height="96"/></clipPath></defs><g clip-path="url(#clip0)" transform="translate(-33 -164)"><g clip-path="url(#clip1)"><g clip-path="url(#clip2)"><g clip-path="url(#clip3)"><path d="M82 236C80.3431 236 79 234.657 79 233L79 200.24 70.12 209.12C68.9078 210.249 67.0095 210.182 65.88 208.97 64.8064 207.818 64.8064 206.032 65.88 204.88L79.88 190.88C81.0513 189.71 82.9487 189.71 84.12 190.88L98.12 204.88C99.2495 206.092 99.1825 207.991 97.9703 209.12 96.8182 210.194 95.0321 210.194 93.88 209.12L85 200.24 85 233C85 234.657 83.6569 236 82 236Z" fill="#FFFFFF"/><path d="M82 175C61.0132 175 44 192.013 44 213 44 233.987 61.0132 251 82 251 102.987 251 120 233.987 120 213 120 192.013 102.987 175 82 175ZM82 181C99.6731 181 114 195.327 114 213 114 230.673 99.6731 245 82 245 64.3269 245 50 230.673 50 213 50 195.327 64.3269 181 82 181Z" fill="#FFFFFF"/></g></g></g></g></svg>